HIERARCHY
ROOT Hips
{
    OFFSET   0.000000   0.000000   0.000000
    CHANNELS 6 Xposition Yposition Zposition Zrotation Xrotation Yrotation
    JOINT Chest
    {
        OFFSET   0.000000   8.007230   0.000000
        CHANNELS 3 Zrotation Xrotation Yrotation
        JOINT Chest2
        {
            OFFSET   0.000000  22.077100   0.000000
            CHANNELS 3 Zrotation Xrotation Yrotation
            JOINT Neck
            {
                OFFSET   0.000000  23.254800  -0.000021
                CHANNELS 3 Zrotation Xrotation Yrotation
                JOINT Head
                {
                    OFFSET   0.000000  14.370000   1.956610
                    CHANNELS 3 Zrotation Xrotation Yrotation
                    End Site
                    {
                        OFFSET   0.000000  19.566000   0.000000
                    }
                }
            }
            JOINT LeftCollar
            {
                OFFSET   3.911900  19.017000  -0.467063
                CHANNELS 3 Zrotation Xrotation Yrotation
                JOINT LeftShoulder
                {
                    OFFSET  10.383700   0.000000   0.000000
                    CHANNELS 3 Zrotation Xrotation Yrotation
                    JOINT LeftElbow
                    {
                        OFFSET  26.662100   0.001529   0.000325
                        CHANNELS 3 Zrotation Xrotation Yrotation
                        JOINT LeftWrist
                        {
                            OFFSET  28.869000  -0.000011  -0.000096
                            CHANNELS 3 Zrotation Xrotation Yrotation
                            JOINT LeftFinger0
                            {
                                OFFSET   2.044650  -2.323460   3.252850
                                CHANNELS 3 Zrotation Xrotation Yrotation
                                JOINT LeftFinger01
                                {
                                    OFFSET   3.088130   0.000000   0.000000
                                    CHANNELS 3 Zrotation Xrotation Yrotation
                                    JOINT LeftFinger02
                                    {
                                        OFFSET   2.639460   0.000000   0.000000
                                        CHANNELS 3 Zrotation Xrotation Yrotation
                                        End Site
                                        {
                                            OFFSET   2.582190   0.000000   0.000000
                                        }
                                    }
                                }
                            }
                            JOINT LeftFinger1
                            {
                                OFFSET   8.364480   0.000000   3.252850
                                CHANNELS 3 Zrotation Xrotation Yrotation
                                JOINT LeftFinger11
                                {
                                    OFFSET   4.646930   0.000000   0.000000
                                    CHANNELS 3 Zrotation Xrotation Yrotation
                                    JOINT LeftFinger12
                                    {
                                        OFFSET   2.323460   0.000000   0.000000
                                        CHANNELS 3 Zrotation Xrotation Yrotation
                                        End Site
                                        {
                                            OFFSET   2.273050   0.000000   0.000000
                                        }
                                    }
                                }
                            }
                            JOINT LeftFinger2
                            {
                                OFFSET   8.364480   0.000016   1.078090
                                CHANNELS 3 Zrotation Xrotation Yrotation
                                JOINT LeftFinger21
                                {
                                    OFFSET   5.111620   0.000000   0.000000
                                    CHANNELS 3 Zrotation Xrotation Yrotation
                                    JOINT LeftFinger22
                                    {
                                        OFFSET   2.788160   0.000017   0.000000
                                        CHANNELS 3 Zrotation Xrotation Yrotation
                                        End Site
                                        {
                                            OFFSET   2.727660   0.000000   0.000000
                                        }
                                    }
                                }
                            }
                            JOINT LeftFinger3
                            {
                                OFFSET   7.899780   0.000015  -1.078090
                                CHANNELS 3 Zrotation Xrotation Yrotation
                                JOINT LeftFinger31
                                {
                                    OFFSET   4.646920   0.000000   0.000000
                                    CHANNELS 3 Zrotation Xrotation Yrotation
                                    JOINT LeftFinger32
                                    {
                                        OFFSET   2.323470   0.000000   0.000000
                                        CHANNELS 3 Zrotation Xrotation Yrotation
                                        End Site
                                        {
                                            OFFSET   2.273050   0.000000   0.000000
                                        }
                                    }
                                }
                            }
                            JOINT LeftFinger4
                            {
                                OFFSET   7.435090   0.000000  -3.252850
                                CHANNELS 3 Zrotation Xrotation Yrotation
                                JOINT LeftFinger41
                                {
                                    OFFSET   3.717550   0.000000   0.000000
                                    CHANNELS 3 Zrotation Xrotation Yrotation
                                    JOINT LeftFinger42
                                    {
                                        OFFSET   1.858760   0.000000   0.000000
                                        CHANNELS 3 Zrotation Xrotation Yrotation
                                        End Site
                                        {
                                            OFFSET   1.818440   0.000000   0.000000
                                        }
                                    }
                                }
                            }
                        }
                    }
                }
            }
            JOINT RightCollar
            {
                OFFSET  -3.911900  19.017000  -0.467062
                CHANNELS 3 Zrotation Xrotation Yrotation
                JOINT RightShoulder
                {
                    OFFSET -10.383700   0.000015   0.000000
                    CHANNELS 3 Zrotation Xrotation Yrotation
                    JOINT RightElbow
                    {
                        OFFSET -26.662100   0.001341   0.000385
                        CHANNELS 3 Zrotation Xrotation Yrotation
                        JOINT RightWrist
                        {
                            OFFSET -28.869000   0.000025  -0.000080
                            CHANNELS 3 Zrotation Xrotation Yrotation
                            JOINT RightFinger0
                            {
                                OFFSET  -2.044650  -2.323490   3.252850
                                CHANNELS 3 Zrotation Xrotation Yrotation
                                JOINT RightFinger01
                                {
                                    OFFSET  -3.088130   0.000000   0.000000
                                    CHANNELS 3 Zrotation Xrotation Yrotation
                                    JOINT RightFinger02
                                    {
                                        OFFSET  -2.639460   0.000000   0.000000
                                        CHANNELS 3 Zrotation Xrotation Yrotation
                                        End Site
                                        {
                                            OFFSET  -2.582190   0.000000   0.000000
                                        }
                                    }
                                }
                            }
                            JOINT RightFinger1
                            {
                                OFFSET  -8.364480   0.000000   3.252850
                                CHANNELS 3 Zrotation Xrotation Yrotation
                                JOINT RightFinger11
                                {
                                    OFFSET  -4.646930   0.000000   0.000000
                                    CHANNELS 3 Zrotation Xrotation Yrotation
                                    JOINT RightFinger12
                                    {
                                        OFFSET  -2.323470   0.000000   0.000000
                                        CHANNELS 3 Zrotation Xrotation Yrotation
                                        End Site
                                        {
                                            OFFSET  -2.273050   0.000000   0.000000
                                        }
                                    }
                                }
                            }
                            JOINT RightFinger2
                            {
                                OFFSET  -8.364480   0.000000   1.078090
                                CHANNELS 3 Zrotation Xrotation Yrotation
                                JOINT RightFinger21
                                {
                                    OFFSET  -5.111610   0.000000   0.000000
                                    CHANNELS 3 Zrotation Xrotation Yrotation
                                    JOINT RightFinger22
                                    {
                                        OFFSET  -2.788160   0.000000   0.000000
                                        CHANNELS 3 Zrotation Xrotation Yrotation
                                        End Site
                                        {
                                            OFFSET  -2.727660   0.000000   0.000000
                                        }
                                    }
                                }
                            }
                            JOINT RightFinger3
                            {
                                OFFSET  -7.899780   0.000000  -1.078090
                                CHANNELS 3 Zrotation Xrotation Yrotation
                                JOINT RightFinger31
                                {
                                    OFFSET  -4.646920   0.000000   0.000000
                                    CHANNELS 3 Zrotation Xrotation Yrotation
                                    JOINT RightFinger32
                                    {
                                        OFFSET  -2.323470   0.000000   0.000000
                                        CHANNELS 3 Zrotation Xrotation Yrotation
                                        End Site
                                        {
                                            OFFSET  -2.273050   0.000000   0.000000
                                        }
                                    }
                                }
                            }
                            JOINT RightFinger4
                            {
                                OFFSET  -7.435090   0.000000  -3.252850
                                CHANNELS 3 Zrotation Xrotation Yrotation
                                JOINT RightFinger41
                                {
                                    OFFSET  -3.717550   0.000000   0.000000
                                    CHANNELS 3 Zrotation Xrotation Yrotation
                                    JOINT RightFinger42
                                    {
                                        OFFSET  -1.858770   0.000000   0.000000
                                        CHANNELS 3 Zrotation Xrotation Yrotation
                                        End Site
                                        {
                                            OFFSET  -1.818440   0.000000   0.000000
                                        }
                                    }
                                }
                            }
                        }
                    }
                }
            }
        }
    }
    JOINT LeftHip
    {
        OFFSET   9.783010   0.000000   0.000000
        CHANNELS 3 Zrotation Xrotation Yrotation
        JOINT LeftKnee
        {
            OFFSET   0.000070 -41.789100   0.000028
            CHANNELS 3 Zrotation Xrotation Yrotation
            JOINT LeftAnkle
            {
                OFFSET   0.000087 -41.133200  -0.000100
                CHANNELS 3 Zrotation Xrotation Yrotation
                JOINT LeftToe
                {
                    OFFSET   0.000000  -6.358960  14.674500
                    CHANNELS 3 Zrotation Xrotation Yrotation
                    End Site
                    {
                        OFFSET   0.000000   0.000000   3.913200
                    }
                }
            }
        }
    }
    JOINT RightHip
    {
        OFFSET  -9.783020   0.000000   0.000000
        CHANNELS 3 Zrotation Xrotation Yrotation
        JOINT RightKnee
        {
            OFFSET   0.000044 -41.789100  -0.000870
            CHANNELS 3 Zrotation Xrotation Yrotation
            JOINT RightAnkle
            {
                OFFSET  -0.000090 -41.133200  -0.000245
                CHANNELS 3 Zrotation Xrotation Yrotation
                JOINT RightToe
                {
                    OFFSET   0.000000  -6.358960  14.674500
                    CHANNELS 3 Zrotation Xrotation Yrotation
                    End Site
                    {
                        OFFSET   0.000000   0.000000   3.913200
                    }
                }
            }
        }
    }
}
MOTION
Frames: 4
Frame Time:   0.016667
 -0.142841  90.035600   0.986234  -2.228010  -1.895470   0.781035   0.288011   2.555990  -0.305718   0.590563   5.110340  -0.625236   1.002980   3.186630  -0.055823   1.661960   6.455440   4.473190  -1.822780  -0.963350   3.600790 -72.420100  16.336000   2.458150  -4.489830  -7.320130 -14.389700  11.770600  20.355900   3.049690  35.525300   3.146710 -40.987100 -23.557500   0.000000   0.000065  -6.778780   0.001911   0.002219 -21.746000   6.267640 -15.307000 -18.482000  -0.005507  -0.002511 -12.937300   0.000978  -0.001725 -25.031300   5.574410 -11.751000 -25.605400  -0.005697  -0.000620 -17.053200  -0.003461  -0.003167 -20.235600   3.703500  -9.938620 -20.557800  -0.011360  -0.003904 -13.691500   0.002548  -0.000314 -22.983700   0.527733  -1.244040 -34.484100   0.002544  -0.001208 -22.966400   0.002811   0.001520   8.819540   2.318210   4.489180  68.099200   8.403330  -3.139870   3.095010  -6.937360   9.859600  -9.498110 -20.292400   7.034470 -37.675600  30.053200  68.221300  28.071500   0.003235  -0.001628   9.035740   0.001383   0.000414  20.098000  -0.783548  -2.161490  16.455700   0.001007   0.000307  11.519000   0.000633   0.000566  20.400200  -1.930100  -5.174760  20.487400  -0.003019   0.000875  13.644600  -0.001842   0.001490  20.704000  -3.560410  -9.330970  20.994600  -0.013154   0.000000  13.982400  -0.002773   0.000718  27.121200  -4.590870  -8.874600  41.216800  -0.010838   0.000000  27.450400  -0.001703  -0.000176   3.726700   1.954940   1.449930   0.960826   1.286830  14.859300  -7.323110  -2.231490   3.687050   0.000000   0.000000   0.000000   3.093940   0.612382  -8.472760  -1.769850   3.848970  -6.633470  -8.309790   1.303040  -2.029980  -0.000000   0.000000   0.000000
 -0.158736  90.035700   0.997225  -2.226760  -1.913430   0.814328   0.287507   2.579290  -0.285095   0.588769   5.157070  -0.584045   0.928943   3.229610  -0.052386   1.539610   6.543290   4.572420  -1.828370  -0.963373   3.578840 -72.397800  16.388900   2.414100  -4.509640  -7.358050 -14.423300  11.763700  20.356000   3.044830  35.525500   3.080110 -40.962300 -23.548600   0.000000   0.000032  -6.774300   0.001896   0.002236 -21.731800   6.259920 -15.299500 -18.469200  -0.005510  -0.002510 -12.928400   0.000975  -0.001724 -25.023300   5.565850 -11.738700 -25.596000  -0.005694  -0.000614 -17.047000  -0.003457  -0.003168 -20.225600   3.696090  -9.924420 -20.546600  -0.011361  -0.003906 -13.684100   0.002549  -0.000310 -22.972600   0.523187  -1.233980 -34.467100   0.002550  -0.001214 -22.955100   0.002807   0.001520   8.792300   2.286490   4.471940  68.116300   8.407520  -3.154910   3.108870  -6.933440   9.916950  -9.577120 -20.356400   7.037230 -37.685400  30.083000  68.264500  28.078500   0.003231  -0.001616   9.039220   0.001381   0.000427  20.113300  -0.785439  -2.158370  16.468400   0.001010   0.000304  11.527800   0.000633   0.000558  20.410000  -1.936350  -5.188720  20.497700  -0.003017   0.000871  13.651500  -0.001842   0.001484  20.710500  -3.561680  -9.332860  21.001400  -0.013164  -0.000000  13.986900  -0.002770   0.000716  27.106400  -4.590650  -8.876850  41.193900  -0.010841  -0.000000  27.435200  -0.001711  -0.000188   3.740530   1.975720   1.454250   0.960369   1.287070  14.830100  -7.340280  -2.229880   3.677910  -0.000000   0.000000   0.000000   3.078190   0.625543  -8.525020  -1.738160   3.863080  -6.597600  -8.328630   1.295700  -2.050630  -0.000000   0.000000  -0.000000
 -0.185550  90.035900   1.015060  -2.224590  -1.942970   0.871448   0.286927   2.616970  -0.248441   0.586140   5.232660  -0.510817   0.801050   3.306300  -0.046288   1.328060   6.699990   4.748550  -1.839310  -0.963420   3.536440 -72.358500  16.479500   2.336610  -4.542560  -7.420840 -14.478400  11.749700  20.356100   3.038070  35.525700   3.013460 -40.937600 -23.528600   0.000000  -0.000000  -6.764290   0.001882   0.002254 -21.717700   6.252200 -15.292100 -18.456400  -0.005523  -0.002508 -12.919500   0.000969  -0.001723 -25.015600   5.557340 -11.724200 -25.586600  -0.005689  -0.000604 -17.040700  -0.003445  -0.003170 -20.215500   3.688670  -9.910230 -20.535400  -0.011367  -0.003908 -13.676600   0.002551  -0.000304 -22.961400   0.518642  -1.223920 -34.450200   0.002556  -0.001220 -22.943900   0.002800   0.001521   8.748530   2.235730   4.437990  68.146200   8.437560  -3.177770   3.129150  -6.928880  10.004300  -9.693420 -20.437900   7.040740 -37.686200  30.130400  68.333600  28.105200   0.003225  -0.001604   9.052580   0.001372   0.000439  20.144400  -0.791022  -2.155240  16.493900   0.001019   0.000293  11.545700   0.000634   0.000541  20.431200  -1.951190  -5.222300  20.520100  -0.003011   0.000859  13.666400  -0.001842   0.001467  20.726800  -3.570570  -9.346100  21.018600  -0.013189   0.000000  13.998400  -0.002763   0.000709  27.090500  -4.590260  -8.892630  41.171000  -0.010847   0.000000  27.419900  -0.001722  -0.000199   3.764600   2.011160   1.464340   0.958257   1.287480  14.772900  -7.369740  -2.225310   3.668760   0.000000   0.000000   0.000000   3.053780   0.647560  -8.604230  -1.684980   3.888800  -6.545920  -8.360330   1.280920  -2.086690  -0.000000   0.000000   0.000000
 -0.207372  90.036000   1.027980  -2.222870  -1.965140   0.918681   0.286579   2.644500  -0.213432   0.583975   5.287900  -0.440826   0.689390   3.377480  -0.040684   1.143410   6.845520   4.908110  -1.851110  -0.963667   3.485620 -72.320900  16.559300   2.266650  -4.569230  -7.472130 -14.520900  11.735300  20.336600   3.035320  35.536600   3.032260 -40.943300 -23.502200  -0.000028  -0.000000  -6.751090   0.001892   0.002250 -21.719700   6.253920 -15.294600 -18.458300  -0.005544  -0.002504 -12.920900   0.000966  -0.001731 -25.028100   5.559490 -11.721700 -25.599100  -0.005688  -0.000599 -17.049100  -0.003426  -0.003170 -20.224400   3.690170  -9.910540 -20.544400  -0.011393  -0.003905 -13.682600   0.002556  -0.000296 -22.965600   0.519320  -1.225270 -34.456600   0.002554  -0.001213 -22.948100   0.002792   0.001528   8.718130   2.198420   4.395130  68.174400   8.512500  -3.193820   3.140670  -6.942200  10.059500  -9.761660 -20.458300   7.041590 -37.657000  30.165300  68.392700  28.164500   0.003223  -0.001610   9.082260   0.001353   0.000431  20.181000  -0.803888  -2.180550  16.524200   0.001033   0.000272  11.567000   0.000643   0.000516  20.459300  -1.975380  -5.278750  20.550300  -0.003001   0.000838  13.686500  -0.001836   0.001441  20.750100  -3.597170  -9.401160  21.045700  -0.013226   0.000000  14.016400  -0.002754   0.000697  27.147600  -4.624700  -8.942660  41.264200  -0.010857  -0.000028  27.482000  -0.001729  -0.000191   3.785790   2.041370   1.483080   0.955355   1.278740  14.705600  -7.394210  -2.216970   3.672530   0.000000   0.000000   0.000000   3.039320   0.664729  -8.644170  -1.643620   3.913210  -6.523420  -8.385150   1.265350  -2.121740   0.000000   0.000000  -0.000000
